<svg width="31" height="31" viewBox="0 0 31 31" fill="none" xmlns="http://www.w3.org/2000/svg">
<g filter="url(#filter0_f_489_28)">
<path d="M9.33649 27.6326C8.14286 26.2511 7.67984 24.3635 8.09871 22.5842C8.20863 22.1167 8.37508 21.6673 8.59735 21.2453C8.14614 21.4023 7.67877 21.5034 7.20024 21.5443C5.37898 21.7006 3.57857 20.9685 2.38494 19.5871C1.59303 18.6705 1.1201 17.5453 1.0198 16.331C0.894122 14.8068 1.36753 13.3238 2.35717 12.1544C3.34681 10.985 4.72975 10.2674 6.25505 10.137C6.73358 10.096 7.21081 10.1144 7.68196 10.1934C7.39436 9.81324 7.15622 9.39907 6.97018 8.95734C5.74802 6.04924 7.12345 2.68377 10.0351 1.45446C12.3314 0.486166 14.965 1.09782 16.5877 2.97588C16.9794 3.42915 17.2962 3.9412 17.5299 4.49891C17.716 4.94063 17.8444 5.40014 17.914 5.87265C18.1856 5.48078 18.5061 5.12523 18.8706 4.81035C21.2628 2.74336 24.8864 3.00032 26.9482 5.38664C29.0101 7.77296 28.7402 11.394 26.3462 13.4624C25.9818 13.7773 25.5835 14.0429 25.1564 14.2548C25.6123 14.3905 26.0483 14.5842 26.4598 14.8341C26.9777 15.1462 27.4384 15.5341 27.83 15.9873C29.4541 17.867 29.6757 20.5599 28.3844 22.6914C26.7456 25.3938 23.2159 26.2694 20.516 24.6382C20.1059 24.39 19.7307 24.0943 19.3963 23.7545C19.4046 24.2305 19.3536 24.7054 19.2451 25.1745C18.8947 26.6648 17.984 27.9289 16.6834 28.7384C15.3827 29.5479 13.8467 29.8011 12.3569 29.4555C11.17 29.1801 10.1267 28.5505 9.33338 27.6323L9.33649 27.6326Z" fill="#2558D8"/>
</g>
<defs>
<filter id="filter0_f_489_28" x="0" y="0" width="30.2197" height="30.6062" filterUnits="userSpaceOnUse" color-interpolation-filters="sRGB">
<feFlood flood-opacity="0" result="BackgroundImageFix"/>
<feBlend mode="normal" in="SourceGraphic" in2="BackgroundImageFix" result="shape"/>
<feGaussianBlur stdDeviation="0.5" result="effect1_foregroundBlur_489_28"/>
</filter>
</defs>
</svg>
