<svg width="70" height="69" viewBox="0 0 70 69" fill="none" xmlns="http://www.w3.org/2000/svg">
<g filter="url(#filter0_f_819_453)">
<path d="M16.5231 52.8836C15.348 49.8161 15.7186 46.339 17.5153 43.5843C17.9872 42.8604 18.5436 42.2017 19.1778 41.6236C18.3183 41.6134 17.4656 41.4988 16.6308 41.2754C13.4535 40.4262 10.8546 38.0867 9.67953 35.0192C8.89992 32.9841 8.78766 30.791 9.36043 28.6749C10.0797 26.0189 11.7875 23.799 14.1771 22.4253C16.5667 21.0516 19.3456 20.6829 22.0063 21.3949C22.8411 21.6182 23.6373 21.9412 24.3863 22.3629C24.1321 21.5437 23.9824 20.6973 23.9377 19.8361C23.6477 14.1679 28.0329 9.31418 33.7114 9.01432C38.189 8.77988 42.2715 11.4252 43.869 15.5952C44.2545 16.6017 44.4776 17.6619 44.5321 18.7485C44.5768 19.6097 44.5131 20.4657 44.3419 21.3078C45.0412 20.8108 45.801 20.4052 46.6102 20.0952C51.922 18.0603 57.8963 20.7107 59.9261 26.0093C61.956 31.3079 59.2852 37.2701 53.9697 39.3064C53.1605 39.6164 52.3241 39.8222 51.4718 39.9196C52.1603 40.4281 52.7797 41.0225 53.3232 41.6968C54.0087 42.5417 54.551 43.4796 54.9366 44.486C56.5355 48.6598 55.2639 53.3519 51.7756 56.1691C47.3502 59.7399 40.8422 59.0633 37.2709 54.6522C36.7288 53.9816 36.2747 53.2518 35.9166 52.4724C35.6396 53.2829 35.2629 54.0552 34.7925 54.7828C33.2884 57.0902 30.9744 58.6725 28.2787 59.2469C25.5829 59.8214 22.829 59.3106 20.5193 57.815C18.6793 56.6232 17.299 54.9201 16.5179 52.8813L16.5231 52.8836Z" fill="#FF5B38"/>
<path d="M16.5231 52.8836C15.348 49.8161 15.7186 46.339 17.5153 43.5843C17.9872 42.8604 18.5436 42.2017 19.1778 41.6236C18.3183 41.6134 17.4656 41.4988 16.6308 41.2754C13.4535 40.4262 10.8546 38.0867 9.67953 35.0192C8.89992 32.9841 8.78766 30.791 9.36043 28.6749C10.0797 26.0189 11.7875 23.799 14.1771 22.4253C16.5667 21.0516 19.3456 20.6829 22.0063 21.3949C22.8411 21.6182 23.6373 21.9412 24.3863 22.3629C24.1321 21.5437 23.9824 20.6973 23.9377 19.8361C23.6477 14.1679 28.0329 9.31418 33.7114 9.01432C38.189 8.77988 42.2715 11.4252 43.869 15.5952C44.2545 16.6017 44.4776 17.6619 44.5321 18.7485C44.5768 19.6097 44.5131 20.4657 44.3419 21.3078C45.0412 20.8108 45.801 20.4052 46.6102 20.0952C51.922 18.0603 57.8963 20.7107 59.9261 26.0093C61.956 31.3079 59.2852 37.2701 53.9697 39.3064C53.1605 39.6164 52.3241 39.8222 51.4718 39.9196C52.1603 40.4281 52.7797 41.0225 53.3232 41.6968C54.0087 42.5417 54.551 43.4796 54.9366 44.486C56.5355 48.6598 55.2639 53.3519 51.7756 56.1691C47.3502 59.7399 40.8422 59.0633 37.2709 54.6522C36.7288 53.9816 36.2747 53.2518 35.9166 52.4724C35.6396 53.2829 35.2629 54.0552 34.7925 54.7828C33.2884 57.0902 30.9744 58.6725 28.2787 59.2469C25.5829 59.8214 22.829 59.3106 20.5193 57.815C18.6793 56.6232 17.299 54.9201 16.5179 52.8813L16.5231 52.8836Z" fill="#874C3A"/>
</g>
<defs>
<filter id="filter0_f_819_453" x="0" y="0" width="69.606" height="68.4768" filterUnits="userSpaceOnUse" color-interpolation-filters="sRGB">
<feFlood flood-opacity="0" result="BackgroundImageFix"/>
<feBlend mode="normal" in="SourceGraphic" in2="BackgroundImageFix" result="shape"/>
<feGaussianBlur stdDeviation="4.5" result="effect1_foregroundBlur_819_453"/>
</filter>
</defs>
</svg>
